<?xml version="1.0" standalone="no"?>
<svg xmlns:xlink="http://www.w3.org/1999/xlink" id="wave" style="transform:rotate(0deg); transition: 0.3s" viewBox="0 0 1440 110" version="1.1" xmlns="http://www.w3.org/2000/svg"><defs><linearGradient id="sw-gradient-0" x1="0" x2="0" y1="1" y2="0"><stop stop-color="rgba(15, 118, 110, 1)" offset="0%"/><stop stop-color="rgba(15, 118, 110, 1)" offset="100%"/></linearGradient></defs><path style="transform:translate(0, 0px); opacity:1" fill="url(#sw-gradient-0)" d="M0,22L30,27.5C60,33,120,44,180,42.2C240,40,300,26,360,18.3C420,11,480,11,540,14.7C600,18,660,26,720,34.8C780,44,840,55,900,55C960,55,1020,44,1080,34.8C1140,26,1200,18,1260,14.7C1320,11,1380,11,1440,22C1500,33,1560,55,1620,56.8C1680,59,1740,40,1800,33C1860,26,1920,29,1980,31.2C2040,33,2100,33,2160,33C2220,33,2280,33,2340,40.3C2400,48,2460,62,2520,60.5C2580,59,2640,40,2700,38.5C2760,37,2820,51,2880,53.2C2940,55,3000,44,3060,49.5C3120,55,3180,77,3240,73.3C3300,70,3360,40,3420,34.8C3480,29,3540,48,3600,47.7C3660,48,3720,29,3780,25.7C3840,22,3900,33,3960,47.7C4020,62,4080,81,4140,82.5C4200,84,4260,70,4290,62.3L4320,55L4320,110L4290,110C4260,110,4200,110,4140,110C4080,110,4020,110,3960,110C3900,110,3840,110,3780,110C3720,110,3660,110,3600,110C3540,110,3480,110,3420,110C3360,110,3300,110,3240,110C3180,110,3120,110,3060,110C3000,110,2940,110,2880,110C2820,110,2760,110,2700,110C2640,110,2580,110,2520,110C2460,110,2400,110,2340,110C2280,110,2220,110,2160,110C2100,110,2040,110,1980,110C1920,110,1860,110,1800,110C1740,110,1680,110,1620,110C1560,110,1500,110,1440,110C1380,110,1320,110,1260,110C1200,110,1140,110,1080,110C1020,110,960,110,900,110C840,110,780,110,720,110C660,110,600,110,540,110C480,110,420,110,360,110C300,110,240,110,180,110C120,110,60,110,30,110L0,110Z"/></svg>