<?xml version="1.0" standalone="no"?>
<svg xmlns:xlink="http://www.w3.org/1999/xlink" id="wave" style="transform:rotate(0deg); transition: 0.3s" viewBox="0 0 1440 110" version="1.1" xmlns="http://www.w3.org/2000/svg"><defs><linearGradient id="sw-gradient-0" x1="0" x2="0" y1="1" y2="0"><stop stop-color="rgba(255, 253, 181, 1)" offset="0%"/><stop stop-color="rgba(7, 89, 133, 1)" offset="100%"/></linearGradient></defs><path style="transform:translate(0, 0px); opacity:1" fill="url(#sw-gradient-0)" d="M0,33L30,33C60,33,120,33,180,42.2C240,51,300,70,360,69.7C420,70,480,51,540,47.7C600,44,660,55,720,66C780,77,840,88,900,78.8C960,70,1020,40,1080,31.2C1140,22,1200,33,1260,33C1320,33,1380,22,1440,18.3C1500,15,1560,18,1620,20.2C1680,22,1740,22,1800,33C1860,44,1920,66,1980,71.5C2040,77,2100,66,2160,66C2220,66,2280,77,2340,67.8C2400,59,2460,29,2520,31.2C2580,33,2640,66,2700,78.8C2760,92,2820,84,2880,71.5C2940,59,3000,40,3060,42.2C3120,44,3180,66,3240,64.2C3300,62,3360,37,3420,22C3480,7,3540,4,3600,16.5C3660,29,3720,59,3780,69.7C3840,81,3900,73,3960,58.7C4020,44,4080,22,4140,14.7C4200,7,4260,15,4290,18.3L4320,22L4320,110L4290,110C4260,110,4200,110,4140,110C4080,110,4020,110,3960,110C3900,110,3840,110,3780,110C3720,110,3660,110,3600,110C3540,110,3480,110,3420,110C3360,110,3300,110,3240,110C3180,110,3120,110,3060,110C3000,110,2940,110,2880,110C2820,110,2760,110,2700,110C2640,110,2580,110,2520,110C2460,110,2400,110,2340,110C2280,110,2220,110,2160,110C2100,110,2040,110,1980,110C1920,110,1860,110,1800,110C1740,110,1680,110,1620,110C1560,110,1500,110,1440,110C1380,110,1320,110,1260,110C1200,110,1140,110,1080,110C1020,110,960,110,900,110C840,110,780,110,720,110C660,110,600,110,540,110C480,110,420,110,360,110C300,110,240,110,180,110C120,110,60,110,30,110L0,110Z"/></svg>