<?xml version="1.0" standalone="no"?><svg xmlns="http://www.w3.org/2000/svg" viewBox="0 0 1440 320"><path fill="#ff5500" fill-opacity="1" d="M0,256L40,256C80,256,160,256,240,250.7C320,245,400,235,480,192C560,149,640,75,720,53.3C800,32,880,64,960,64C1040,64,1120,32,1200,26.7C1280,21,1360,43,1400,53.3L1440,64L1440,320L1400,320C1360,320,1280,320,1200,320C1120,320,1040,320,960,320C880,320,800,320,720,320C640,320,560,320,480,320C400,320,320,320,240,320C160,320,80,320,40,320L0,320Z" data-darkreader-inline-fill="" style="--darkreader-inline-fill: #007acc;"></path></svg>